<svg width="84" height="84" viewBox="0 0 84 84" fill="none" xmlns="http://www.w3.org/2000/svg">
<g clip-path="url(#clip0_3514_3026)">
<path d="M41.5992 52.3996C47.343 52.3996 51.9992 47.7434 51.9992 41.9996C51.9992 36.2558 47.343 31.5996 41.5992 31.5996C35.8555 31.5996 31.1992 36.2558 31.1992 41.9996C31.1992 47.7434 35.8555 52.3996 41.5992 52.3996Z" stroke="white" stroke-width="2.4" stroke-miterlimit="10" stroke-linecap="round" stroke-linejoin="round"/>
<path d="M6.93262 45.0495V38.9482C6.93262 35.3429 9.87928 32.3615 13.5193 32.3615C19.7939 32.3615 22.3593 27.9242 19.2046 22.4815C17.4019 19.3615 18.4766 15.3055 21.6313 13.5029L27.6286 10.0709C30.3673 8.44153 33.9033 9.4122 35.5326 12.1509L35.9139 12.8095C39.0339 18.2522 44.1646 18.2522 47.3193 12.8095L47.7006 12.1509C49.3299 9.4122 52.866 8.44153 55.6046 10.0709L61.6019 13.5029C64.7566 15.3055 65.8313 19.3615 64.0286 22.4815C60.8739 27.9242 63.4393 32.3615 69.7139 32.3615C73.3193 32.3615 76.3006 35.3082 76.3006 38.9482V45.0495C76.3006 48.6549 73.3539 51.6362 69.7139 51.6362C63.4393 51.6362 60.8739 56.0735 64.0286 61.5162C65.8313 64.6709 64.7566 68.6922 61.6019 70.4949L55.6046 73.9269C52.866 75.5562 49.3299 74.5855 47.7006 71.8469L47.3193 71.1882C44.1993 65.7455 39.0686 65.7455 35.9139 71.1882L35.5326 71.8469C33.9033 74.5855 30.3673 75.5562 27.6286 73.9269L21.6313 70.4949C18.4766 68.6922 17.4019 64.6362 19.2046 61.5162C22.3593 56.0735 19.7939 51.6362 13.5193 51.6362C9.87928 51.6362 6.93262 48.6549 6.93262 45.0495Z" stroke="white" stroke-width="2.4" stroke-miterlimit="10" stroke-linecap="round" stroke-linejoin="round"/>
</g>
<defs>
<clipPath id="clip0_3514_3026">
<rect width="83.2" height="83.2" fill="white" transform="translate(0 0.400391)"/>
</clipPath>
</defs>
</svg>
