<svg width="84" height="84" viewBox="0 0 84 84" fill="none" xmlns="http://www.w3.org/2000/svg">
<path d="M62.3927 25.222C62.1847 25.1873 61.9421 25.1873 61.7341 25.222C56.9501 25.0487 53.1367 21.1313 53.1367 16.278C53.1367 11.3207 57.1234 7.33398 62.0807 7.33398C67.038 7.33398 71.0247 11.3553 71.0247 16.278C70.99 21.1313 67.1767 25.0487 62.3927 25.222Z" stroke="white" stroke-width="2.4" stroke-linecap="round" stroke-linejoin="round"/>
<path d="M58.8198 50.4599C63.5692 51.2572 68.8038 50.4252 72.4785 47.9639C77.3665 44.7052 77.3665 39.3665 72.4785 36.1079C68.7692 33.6465 63.4652 32.8145 58.7158 33.6465" stroke="white" stroke-width="2.4" stroke-linecap="round" stroke-linejoin="round"/>
<path d="M20.6994 25.222C20.9074 25.1873 21.1501 25.1873 21.358 25.222C26.142 25.0487 29.9554 21.1313 29.9554 16.278C29.9554 11.3207 25.9687 7.33398 21.0114 7.33398C16.0541 7.33398 12.0674 11.3553 12.0674 16.278C12.102 21.1313 15.9154 25.0487 20.6994 25.222Z" stroke="white" stroke-width="2.4" stroke-linecap="round" stroke-linejoin="round"/>
<path d="M24.2739 50.4599C19.5245 51.2572 14.2899 50.4252 10.6152 47.9639C5.72722 44.7052 5.72722 39.3665 10.6152 36.1079C14.3246 33.6465 19.6285 32.8145 24.3779 33.6465" stroke="white" stroke-width="2.4" stroke-linecap="round" stroke-linejoin="round"/>
<path d="M41.5929 51.1146C41.3849 51.0799 41.1422 51.0799 40.9342 51.1146C36.1502 50.9412 32.3369 47.0239 32.3369 42.1706C32.3369 37.2132 36.3236 33.2266 41.2809 33.2266C46.2382 33.2266 50.2249 37.2479 50.2249 42.1706C50.1902 47.0239 46.3769 50.9759 41.5929 51.1146Z" stroke="white" stroke-width="2.4" stroke-linecap="round" stroke-linejoin="round"/>
<path d="M31.5068 62.0353C26.6188 65.294 26.6188 70.6326 31.5068 73.8913C37.0535 77.6006 46.1362 77.6006 51.6828 73.8913C56.5708 70.6326 56.5708 65.294 51.6828 62.0353C46.1708 58.3606 37.0535 58.3606 31.5068 62.0353Z" stroke="white" stroke-width="2.4" stroke-linecap="round" stroke-linejoin="round"/>
</svg>
