<svg width="84" height="84" viewBox="0 0 84 84" fill="none" xmlns="http://www.w3.org/2000/svg">
<path d="M14.7734 38.6029V55.8322C14.7734 62.1415 14.7734 62.1415 20.7361 66.1629L37.1334 75.6269C39.5948 77.0482 43.6161 77.0482 46.0774 75.6269L62.4748 66.1629C68.4374 62.1415 68.4374 62.1415 68.4374 55.8322V38.6029C68.4374 32.2935 68.4374 32.2935 62.4748 28.2722L46.0774 18.8082C43.6161 17.3869 39.5948 17.3869 37.1334 18.8082L20.7361 28.2722C14.7734 32.2935 14.7734 32.2935 14.7734 38.6029Z" stroke="white" stroke-width="2.4" stroke-linecap="round" stroke-linejoin="round"/>
<path d="M60.6665 26.8513V17.734C60.6665 10.8007 57.1999 7.33398 50.2665 7.33398H32.9332C25.9999 7.33398 22.5332 10.8007 22.5332 17.734V26.6087" stroke="white" stroke-width="2.4" stroke-linecap="round" stroke-linejoin="round"/>
<path d="M43.7896 38.4997L45.7656 41.585C46.0776 42.0704 46.771 42.5557 47.291 42.6944L50.827 43.5957C53.011 44.1504 53.6003 46.0224 52.179 47.7557L49.8563 50.5637C49.5096 51.0144 49.2323 51.8117 49.267 52.3664L49.475 56.0064C49.6136 58.2597 48.019 59.4037 45.939 58.5717L42.5416 57.2197C42.0216 57.0117 41.155 57.0117 40.635 57.2197L37.2376 58.5717C35.1576 59.4037 33.563 58.225 33.7016 56.0064L33.9096 52.3664C33.9443 51.8117 33.667 50.9797 33.3203 50.5637L30.9976 47.7557C29.5763 46.0224 30.1656 44.1504 32.3496 43.5957L35.8856 42.6944C36.4403 42.5557 37.1336 42.0357 37.411 41.585L39.387 38.4997C40.635 36.6277 42.5763 36.6277 43.7896 38.4997Z" stroke="white" stroke-width="2.4" stroke-linecap="round" stroke-linejoin="round"/>
</svg>
