<svg width="187" height="36" viewBox="0 0 187 36" fill="none" xmlns="http://www.w3.org/2000/svg">
<g clip-path="url(#clip0_3062_14444)">
<path d="M21.9901 18.2016L31.8395 8.86523H22.1276L12.2324 18.2016H21.9901Z" fill="black"/>
<path d="M24.6002 26.8947L31.7925 20.0879H10.1698L2.93164 26.8947H24.6002Z" fill="black"/>
<path fill-rule="evenodd" clip-rule="evenodd" d="M1.96987 2.38V33.3787H32.8464V2.38H1.96987ZM0 0.402344H34.8621V35.3564H0V0.402344Z" fill="black"/>
<path d="M64.959 0.402344H69.3568V7.02521H83.0085V0.402344H87.4063V17.8334H83.0085V11.2105H69.3568V17.8334H64.959V0.402344Z" fill="black"/>
<path d="M112.696 0.402344H89.8359V17.8334H112.696V13.6481H94.2338V11.2105H111.688V7.02521H94.2338V4.58763H112.696V0.402344Z" fill="black"/>
<path d="M132.209 17.8334L118.97 5.78342V17.8334H114.572V0.402344H119.749L132.897 12.4063V0.402344H137.294V17.8334H132.209Z" fill="black"/>
<path d="M162.171 0.402344V13.3261C162.171 15.8097 160.155 17.7874 157.636 17.7874H143.801C141.281 17.7874 139.266 15.7637 139.266 13.3261V0.402344H143.663V12.1763C143.663 12.9582 144.305 13.6021 145.129 13.6021H156.353C157.178 13.6021 157.819 12.9582 157.819 12.1763V0.402344H162.171Z" fill="black"/>
<path d="M181.503 17.8334C184.527 17.8334 187.001 15.4418 187.001 12.4523C187.001 9.46279 184.527 7.02521 181.503 7.02521H169.501C168.814 7.02521 168.218 6.4733 168.218 5.78342C168.218 5.09354 168.768 4.58763 169.501 4.58763H186.359V0.402344H169.409C166.386 0.402344 163.912 2.83993 163.912 5.82941C163.912 8.8189 166.386 11.2565 169.409 11.2565H181.412C182.099 11.2565 182.695 11.8084 182.695 12.4983C182.695 13.1882 182.145 13.6941 181.412 13.6941H164.279V17.8793L181.503 17.8334Z" fill="black"/>
<path fill-rule="evenodd" clip-rule="evenodd" d="M44.8939 11.2105V17.7874H40.4961V0.402344H57.721C60.7445 0.402344 63.2183 2.83993 63.2183 5.82941C63.2183 8.8189 60.7445 11.2565 57.721 11.2565H56.3467L62.9892 17.8334H56.8048L50.1622 11.2565H44.8939V11.2105ZM44.8939 7.02521V4.58763H57.5835C58.2707 4.58763 58.8204 5.13953 58.8204 5.78342C58.8204 6.4733 58.2707 6.97922 57.5835 6.97922L44.8939 7.02521Z" fill="black"/>
<path d="M153.055 35.31C151.955 35.31 151.039 34.3902 151.039 33.2404V25.6517C151.039 24.5019 151.955 23.582 153.055 23.582H166.202V25.7897H154.475C153.879 25.7897 153.421 26.2956 153.421 26.8935V32.0906C153.421 32.6885 153.879 33.1944 154.475 33.1944H166.202V35.356L153.055 35.31Z" fill="black"/>
<path d="M170.919 35.3569V33.1493H182.876C183.563 33.1493 184.205 32.6434 184.205 31.9075C184.205 31.1716 183.609 30.6197 182.876 30.6197H174.218C172.248 30.6197 170.645 29.056 170.645 27.1243C170.645 25.1926 172.248 23.6289 174.218 23.6289H186.037V25.8365H174.264C173.576 25.8365 172.935 26.3424 172.935 27.0783C172.935 27.8142 173.531 28.3661 174.264 28.3661H182.922C184.892 28.3661 186.495 29.9298 186.495 31.8615C186.495 33.7932 184.892 35.3569 182.922 35.3569H170.919Z" fill="black"/>
<path d="M138.989 25.7897H133.309V35.356H130.927V25.8356L125.246 25.7897V23.582H138.989V25.7897Z" fill="black"/>
<path d="M143.48 23.582H145.817V35.356H143.48V23.582Z" fill="black"/>
<path d="M106.236 35.3569V33.1493H118.192C118.88 33.1493 119.521 32.6434 119.521 31.9075C119.521 31.1716 118.925 30.6197 118.192 30.6197H109.534C107.564 30.6197 105.961 29.056 105.961 27.1243C105.961 25.1926 107.564 23.6289 109.534 23.6289H121.353V25.8365H109.58C108.893 25.8365 108.251 26.3424 108.251 27.0783C108.251 27.8142 108.847 28.3661 109.58 28.3661H118.238C120.208 28.3661 121.811 29.9298 121.811 31.8615C121.811 33.7932 120.208 35.3569 118.238 35.3569H106.236Z" fill="black"/>
<path d="M98.9062 23.582H101.288V35.356H98.9062V23.582Z" fill="black"/>
<path d="M40.4043 23.582H42.7865V33.1484L55.3845 33.1944V35.402H40.4501L40.4043 23.582Z" fill="black"/>
<path d="M63.0818 25.7897H61.7533C61.1577 25.7897 60.6996 26.2956 60.6996 26.8935V32.0906C60.6996 32.6885 61.1577 33.1944 61.7533 33.1944H63.0818H68.2584H70.0909C70.6864 33.1944 71.1445 32.6885 71.1445 32.0906V26.8475C71.1445 26.2496 70.6864 25.7437 70.0909 25.7437H68.2584H63.0818V25.7897ZM63.1276 35.31H60.379C59.2795 35.31 58.3633 34.3902 58.3633 33.2404V25.6517C58.3633 24.5019 59.2795 23.582 60.379 23.582H63.1276H68.2584H71.511C72.6105 23.582 73.5267 24.5019 73.5267 25.6517V33.2404C73.5267 34.3902 72.6105 35.31 71.511 35.31H68.2584H63.1276Z" fill="black"/>
<path d="M83.2848 33.1484H85.7586H89.7899C90.3855 33.1484 90.8436 32.6425 90.8436 32.0446V31.4467C90.8436 30.8488 90.3855 30.3429 89.7899 30.3429H84.0177V28.1353H91.2101C92.3095 28.1353 93.2257 29.0551 93.2257 30.2049V33.1484C93.2257 34.2982 92.3095 35.218 91.2101 35.218H85.7586H83.2848H79.9864C78.8869 35.218 77.9707 34.2982 77.9707 33.1484V25.6517C77.9707 24.5019 78.8869 23.582 79.9864 23.582H93.1799V25.7897H81.4065C80.811 25.7897 80.3529 26.2956 80.3529 26.8935V32.0906C80.3529 32.6885 80.811 33.1944 81.4065 33.1944H83.2848V33.1484Z" fill="black"/>
</g>
<defs>
<clipPath id="clip0_3062_14444">
<rect width="187" height="35" fill="white" transform="translate(0 0.402344)"/>
</clipPath>
</defs>
</svg>
