<svg width="99" height="95" viewBox="0 0 99 95" fill="none" xmlns="http://www.w3.org/2000/svg">
<g style="mix-blend-mode:soft-light" clip-path="url(#clip0_3514_8575)">
<path d="M26.9322 0H0.00390625L9.16512 8.84879H18.0487V17.6976L26.9322 26.9612V0Z" fill="white"/>
<path d="M62.9606 0H36.0322L45.1935 8.84879H54.0772V17.6976L62.9606 26.9612V0Z" fill="white"/>
<path d="M98.9899 0H72.0615L81.2228 8.84879H90.1065V17.6976L98.9899 26.9612V0Z" fill="white"/>
<path d="M26.9322 34.0171H0.00390625L9.16512 42.8658H18.0487V51.7148L26.9322 60.9782V34.0171Z" fill="white"/>
<path d="M62.9606 34.0171H36.0322L45.1935 42.8658H54.0772V51.7148L62.9606 60.9782V34.0171Z" fill="white"/>
<path d="M98.9899 34.0171H72.0615L81.2228 42.8658H90.1065V51.7148L98.9899 60.9782V34.0171Z" fill="white"/>
<path d="M26.9322 68.0342H0.00390625L9.16512 76.8829H18.0487V85.7318L26.9322 94.9953V68.0342Z" fill="white"/>
<path d="M62.9606 68.0342H36.0322L45.1935 76.8829H54.0772V85.7318L62.9606 94.9953V68.0342Z" fill="white"/>
<path d="M98.9899 68.0342H72.0615L81.2228 76.8829H90.1065V85.7318L98.9899 94.9953V68.0342Z" fill="white"/>
</g>
<defs>
<clipPath id="clip0_3514_8575">
<rect width="99" height="95" fill="white"/>
</clipPath>
</defs>
</svg>
