<svg width="47" height="37" viewBox="0 0 47 37" fill="none" xmlns="http://www.w3.org/2000/svg">
<path d="M0.748402 36.4023V27.07C0.748402 24.2357 1.24959 21.2286 2.25195 18.0486C3.28889 14.8342 4.77515 11.7406 6.71076 8.76811C8.68093 5.761 11.0486 3.15139 13.8137 0.939272L20.4501 6.33132C18.2726 9.44211 16.3715 12.6912 14.747 16.0785C13.157 19.4312 12.362 23.0259 12.362 26.8626V36.4023H0.748402ZM27.2939 36.4023V27.07C27.2939 24.2357 27.795 21.2286 28.7974 18.0486C29.8343 14.8342 31.3206 11.7406 33.2562 8.76811C35.2264 5.761 37.594 3.15139 40.3592 0.939272L46.9956 6.33132C44.818 9.44211 42.917 12.6912 41.2924 16.0785C39.7025 19.4312 38.9075 23.0259 38.9075 26.8626V36.4023H27.2939Z" fill="#F47920"/>
</svg>
