<svg width="165" height="137" viewBox="0 0 165 137" fill="none" xmlns="http://www.w3.org/2000/svg">
<mask id="path-1-inside-1_3331_57" fill="white">
<path d="M6.32417 79.5977C6.82149 81.1693 6.79987 82.7626 7.02691 84.3884C7.25395 86.0468 7.57829 87.7268 7.8702 89.3743C8.08643 90.6424 8.57295 91.9106 8.64863 93.2112C8.75674 95.1622 9.12433 97.1132 9.4703 99.0642C9.6649 100.137 9.74058 101.21 9.92437 102.283C10.1514 103.627 10.3676 104.928 10.4541 106.294C10.5406 107.714 10.6379 109.307 11.0704 110.662C11.3515 111.529 11.9461 111.475 11.9677 112.385C12.0002 114.39 12.3786 116.124 12.8975 118.021C13.3408 119.647 13.9678 121.49 14.0976 123.181C14.1625 124.015 14.1084 124.861 14.1084 125.706C14.1084 126.855 13.6867 129.337 14.4435 130.378C14.649 130.648 15.3301 131.006 15.5031 131.169C15.849 131.483 16.022 131.721 16.3572 132.057C16.6599 132.35 17.0815 132.686 17.4059 132.946C17.6545 133.141 18.1519 133.38 18.314 133.662C18.4005 133.813 18.4222 134.063 18.4222 134.334C18.4438 134.323 18.4654 134.301 18.487 134.29C18.7681 134.128 19.1141 134.084 19.4168 134.052C19.5898 134.03 19.752 134.019 19.8925 133.965C21.1466 133.575 22.1737 133.326 23.4603 133.315C23.5576 133.315 23.6549 133.304 23.7522 133.293C24.1738 133.25 24.8874 133.174 25.1793 133.889C25.3307 134.258 25.136 134.691 24.9414 135.103C24.8766 135.244 24.8009 135.407 24.7901 135.483C24.6964 135.894 24.8405 136.241 25.2225 136.523C25.2874 136.577 25.3523 136.631 25.4171 136.697C25.5036 136.783 25.5901 136.859 25.6658 136.881C25.8172 136.924 25.9145 136.881 26.1631 136.729C26.3902 136.588 26.6713 136.426 27.0713 136.415C27.1902 136.415 27.2983 136.436 27.3848 136.469C27.4605 136.382 27.5362 136.295 27.6119 136.198C27.8065 135.97 28.0011 135.732 28.2605 135.537C28.7146 135.201 29.1687 134.843 29.839 134.756C30.2282 134.702 30.5526 134.811 30.8012 134.897C30.985 134.962 31.1472 135.016 31.3094 135.006C31.731 134.973 32.0229 134.724 32.0121 133.618V133.293C31.9905 132.827 31.9797 132.383 32.1635 131.895C32.2283 131.711 32.3256 131.548 32.4121 131.385C32.6392 130.974 32.6824 130.887 32.4338 130.605C32.2932 130.453 32.2932 130.215 32.4229 130.063C32.65 129.781 32.9635 129.662 33.2446 129.554C33.3311 129.521 33.4068 129.489 33.4825 129.456C34.0447 129.196 34.1528 128.968 34.4122 128.416L34.5312 128.177C34.6933 127.841 34.8771 127.527 35.0609 127.223C35.3528 126.725 35.6339 126.259 35.7961 125.706C35.4177 125.533 34.9312 125.554 34.4339 125.576C34.023 125.598 33.5906 125.608 33.1797 125.522C32.6067 125.402 32.0662 125.262 31.8067 124.915C31.7418 124.817 31.7094 124.698 31.731 124.59C31.7743 124.373 31.7634 124.145 31.7094 123.928C31.6121 123.408 31.5364 122.91 31.4823 122.422L31.4391 122.227C31.3094 121.555 31.1796 120.926 31.1904 120.178C31.1904 120.016 31.2121 119.81 31.2337 119.582C31.2769 119.159 31.3526 118.466 31.2121 118.238C31.158 118.151 31.1039 118.108 31.0283 118.043C30.8012 117.87 30.585 117.664 30.6282 117.132C30.6607 116.666 31.0175 116.2 31.4067 115.778C31.504 115.669 31.6553 115.615 31.7959 115.648C32.4121 115.767 32.877 116.135 33.2987 116.471C33.4608 116.601 33.6122 116.721 33.7744 116.829C34.3149 117.187 35.1366 117.328 35.7096 117.393C36.3367 117.479 36.6935 116.677 37.0719 115.626C37.1692 115.355 37.2556 115.095 37.3529 114.889C37.8827 113.729 38.6719 114.087 39.1476 114.293C39.818 114.585 40.1855 114.596 40.9099 114.304C41.591 114.033 42.2181 113.545 42.683 112.905C42.8343 112.699 42.9208 112.472 43.0073 112.222C43.1262 111.886 43.2668 111.507 43.5911 111.171C43.6128 111.149 45.6669 109.101 46.9643 109.274C47.3968 109.329 47.8076 109.589 48.2076 109.838C48.4022 109.957 48.5968 110.087 48.7698 110.163C49.1915 110.347 49.4509 110.304 49.8726 110.228C50.0347 110.196 50.2077 110.163 50.4023 110.141L50.6402 110.12C51.0835 110.076 51.4078 110.044 51.8511 109.87C52.7484 109.534 53.2133 109.589 53.9917 109.686L54.2944 109.73C55.3972 109.86 56.5973 109.665 57.4838 109.209C57.819 109.036 58.1001 108.754 58.4028 108.461C58.6298 108.245 58.8569 108.006 59.1272 107.811C59.3001 107.692 59.5272 107.703 59.6677 107.854C59.711 107.887 59.7867 107.833 59.8407 107.703C59.9813 107.399 59.711 106.89 59.5055 106.521L59.138 105.817C58.5758 104.765 57.9487 103.573 57.8838 102.338C57.819 101.091 57.7541 99.7687 57.8838 98.6198C57.9163 98.338 57.9811 98.0562 58.0568 97.7743C58.0893 97.6334 58.1325 97.4817 58.1541 97.3408C58.2406 96.9289 58.3812 96.4412 58.8028 96.2353C59.2245 96.0293 59.7002 96.2352 60.1218 96.4303C60.6624 96.7555 61.1273 97.1349 61.5489 97.5576C61.9922 98.0237 62.5219 98.3055 63.1706 98.4139C63.5058 98.5223 63.8301 98.5981 64.1761 98.6848C65.0626 98.9016 66.0681 99.1509 66.6843 99.6928C66.8789 99.8663 66.933 100.018 66.9654 100.159C66.9654 100.159 66.9979 100.181 67.0411 100.213C67.3114 100.386 68.1547 100.213 68.5547 100.137C68.6845 100.116 68.7926 100.094 68.8899 100.072C69.1277 100.04 69.3764 99.953 69.6359 99.8663C69.971 99.7579 70.317 99.6495 70.6629 99.617C70.9657 99.5844 71.2576 99.7037 71.5062 99.812C71.636 99.8662 71.7657 99.9205 71.863 99.9313C72.5441 100.04 73.1712 99.8662 73.8415 99.6711C74.2848 99.5519 74.7388 99.4218 75.2254 99.3677C75.1929 99.2051 75.1172 99.01 74.9983 98.7715C74.9118 98.5981 74.8362 98.4247 74.7713 98.2513C74.5659 97.6334 74.4361 96.9289 74.4037 96.1702V95.9534C74.328 94.9888 74.2415 93.5364 75.6254 93.0703C76.1011 92.9077 76.5768 92.9511 77.0417 92.9945C77.4201 93.027 77.7877 93.0595 78.1012 92.9728C78.6418 92.8102 79.3553 92.3224 79.7013 91.8672C79.777 91.7697 79.8959 91.7155 80.0148 91.7046C80.1337 91.7046 80.2527 91.748 80.3392 91.8347C80.8041 92.3333 81.2906 92.3224 81.6149 92.2249C82.242 92.0406 82.7609 91.4337 82.8907 90.7508C82.9447 90.4582 82.9555 90.1872 82.9771 89.8945C82.9988 89.4176 83.0204 88.9082 83.2474 88.3663C83.3772 88.0628 83.4853 87.7485 83.6042 87.4342C83.7772 86.9789 83.9394 86.5345 84.134 86.0901C84.2096 85.9275 84.3718 85.83 84.5448 85.8408C84.8583 85.8625 85.0854 85.9167 85.2476 85.9601C85.5178 86.0359 85.5286 86.0251 85.8638 85.6024C86.4584 84.8328 86.5557 84.6377 86.5341 83.6622C86.5233 82.8493 86.6422 81.7438 87.345 81.1693C87.7666 80.8225 88.3072 80.7141 88.9667 80.855C89.1505 80.8983 89.3235 80.9525 89.4856 81.0176C89.864 81.1476 90.037 81.2018 90.3073 81.0501C90.6857 80.8225 91.3452 80.2589 91.6155 79.9229C91.702 79.8145 91.8101 79.511 91.8966 79.24C92.1452 78.5355 92.4588 77.6467 93.1939 77.5817C93.4102 77.5708 93.6048 77.7117 93.6372 77.9285C93.6696 78.1128 93.7129 78.2754 93.7561 78.4163C94.4373 78.6005 94.567 79.4026 94.6535 79.9987C94.7076 80.3456 94.7832 80.8116 94.9454 80.92C94.9562 80.92 95.0859 80.8983 95.1616 80.8875C95.2806 80.8767 95.4103 80.855 95.54 80.8658C95.886 80.8984 96.0265 80.9742 96.2319 81.0718L96.3941 81.1476C96.9671 81.4186 97.4104 81.6896 97.7672 82.0039L97.9618 82.1773C98.1348 82.3291 98.2321 82.4158 98.3618 82.47C98.2969 81.3644 98.1348 80.3889 97.8429 79.4893C97.5618 78.6113 97.3131 77.6792 97.6266 77.0397C97.7672 76.7471 98.0915 76.4978 98.4267 76.2376C98.6321 76.0751 98.8483 75.9125 98.9564 75.7824C99.6484 74.9045 100.351 74.3734 101.367 73.9398C101.584 73.8423 101.8 73.7664 102.005 73.6797C103.573 73.051 104.514 72.6609 104.686 70.8074C104.751 70.1029 104.286 69.8428 103.454 69.4526C102.686 69.0841 101.724 68.6288 101.638 67.4474C101.584 66.6345 101.962 66.3852 102.254 66.1792C102.384 66.0925 102.503 66.0058 102.622 65.8649C102.838 65.594 103.011 65.1821 103.173 64.7919C103.238 64.6293 103.303 64.4667 103.378 64.3258C103.476 64.109 103.573 63.5129 103.649 62.9276C103.908 61.1934 104.2 59.2316 105.432 59.1015C105.887 59.0473 106.395 59.3725 106.795 59.6326C106.914 59.7085 107.011 59.7735 107.097 59.8169C107.422 59.9903 107.66 60.2179 107.897 60.4347C108.092 60.6189 108.287 60.7924 108.492 60.9007C108.492 60.9007 108.492 60.9007 108.503 60.9007C108.503 60.8357 108.514 60.7599 108.525 60.684C108.687 59.6435 109.119 59.47 110.017 59.3508C110.135 59.3291 110.254 59.3291 110.362 59.3291C110.676 59.3291 110.698 59.3074 110.752 59.1882C110.881 58.9498 110.719 58.6896 110.298 58.2236C110.168 58.0826 110.049 57.9417 109.962 57.8117C109.573 57.2372 109.454 56.7495 109.595 56.3268C109.822 55.6656 110.59 55.4163 111.26 55.1995C111.465 55.1345 111.66 55.0695 111.833 54.9936C112.622 54.6576 112.946 53.2919 113.173 52.3815C113.249 52.0563 113.13 51.3843 113.022 50.7448C112.784 49.4116 112.546 48.0351 113.444 47.5257C113.573 47.4498 113.736 47.4498 113.876 47.5257C115.087 48.2735 116.493 49.0865 117.812 49.3032C118.817 49.4658 119.866 49.4224 120.871 49.3791C121.758 49.3466 122.666 49.3141 123.563 49.4008C123.974 49.4441 125.152 49.6826 125.639 50.2787C125.801 50.4738 125.834 50.6797 125.866 50.8315C125.866 50.8857 125.888 50.9399 125.909 51.0049C126.104 51.5252 126.32 51.9262 126.634 52.3489C126.926 52.7391 127.174 53.1944 127.401 53.6279C127.996 54.7226 128.504 55.6764 129.704 55.774C129.953 55.7956 130.018 55.774 130.028 55.774C130.028 55.774 130.007 55.6222 130.028 55.4922C130.028 55.3838 130.039 55.2754 130.061 55.1453C130.169 54.159 130.861 52.8583 131.823 52.4898C132.569 52.1972 133.499 52.5115 134.029 52.9776C134.31 53.216 134.472 53.5304 134.623 53.8013C134.785 54.0831 134.915 54.3324 135.131 54.4517C135.64 54.7335 136.732 54.8418 137.261 54.6576C137.51 54.5709 137.715 54.3975 137.964 54.2024C138.234 53.9748 138.537 53.7254 138.937 53.5845C140.051 53.1943 141.002 53.2919 141.791 53.4545C142.18 53.5304 142.581 53.5303 142.991 53.5412C143.391 53.5412 143.802 53.5412 144.224 53.6171C144.375 53.6387 144.505 53.758 144.559 53.9097C144.656 54.2241 144.948 54.4842 145.251 54.766C145.51 55.0044 145.781 55.2429 145.964 55.5464C146.181 55.9149 146.31 56.3159 146.44 56.7061C146.548 57.0313 146.646 57.3456 146.786 57.6166C146.883 57.8008 147.035 57.9959 147.197 58.2019C147.543 58.6571 147.943 59.1665 147.954 59.7952C147.954 60.3263 147.716 60.8249 147.467 61.3018C147.283 61.6595 147.11 61.9955 147.067 62.3098C146.97 62.9601 146.862 63.307 146.559 63.9139C146.429 64.1849 146.354 64.4884 146.278 64.8136C146.17 65.2688 146.051 65.7348 145.759 66.1792C145.575 66.461 145.273 66.6887 144.981 66.9163C144.786 67.068 144.375 67.3932 144.375 67.5124C144.375 67.5124 144.386 67.5449 144.429 67.5991C144.57 67.7509 145.013 67.7075 145.359 67.6858C145.716 67.6533 146.094 67.6317 146.408 67.7292C146.527 67.7726 146.624 67.8593 146.667 67.9785C146.71 68.0977 146.7 68.2278 146.646 68.3362C146.256 69.0515 146.538 69.626 147.046 70.4931C147.262 70.8616 147.478 71.2518 147.619 71.6637C147.813 72.2598 148.343 72.7801 149.251 73.2462C149.965 73.6147 150.938 73.5605 151.889 73.5171C152.041 73.5171 152.192 73.5063 152.343 73.4954C152.343 73.4737 152.322 73.4521 152.311 73.4304C152.257 73.2028 152.397 72.9752 152.624 72.921C152.754 72.8885 152.776 72.8776 152.895 72.6067C152.949 72.4766 153.111 72.0214 153.154 71.8588C153.251 71.4469 153.057 70.9483 152.862 70.4714C152.776 70.2546 152.689 70.0378 152.624 69.8428C152.559 69.6368 152.516 69.4309 152.462 69.2249C152.376 68.8781 152.3 68.5421 152.159 68.2169L152.105 68.0869C151.857 67.5233 151.684 67.1114 151.965 66.3418C152.3 65.4205 153.068 64.51 154.311 63.5671C154.484 63.437 154.657 63.307 154.83 63.1877C155.511 62.7 156.095 62.2664 156.506 61.5294L156.689 61.1826C156.992 60.5973 157.349 59.9252 157.868 59.5025C158.971 58.5921 160.798 59.1774 162.128 59.6001C162.355 59.676 162.56 59.741 162.744 59.7843C163.306 59.9469 164.311 60.142 164.636 59.6651C164.83 59.3725 164.712 59.1232 164.247 58.5379C164.16 58.4295 164.074 58.3319 164.009 58.2236C163.501 57.5082 163.641 56.7603 163.76 56.0992C163.901 55.3621 163.955 54.8852 163.49 54.4083C162.83 53.7363 161.987 53.6496 161.1 53.552C160.376 53.4762 159.619 53.3894 158.906 52.9992C158.03 52.5115 157.241 51.4601 156.841 50.7014C156.516 50.0944 156.203 48.9997 156.16 48.2519C156.16 48.1001 156.16 47.9484 156.181 47.7966C156.203 47.6666 156.214 47.5365 156.192 47.439C156.16 47.2655 156.062 47.0921 155.954 46.9187C155.716 46.5393 155.37 45.9757 155.987 45.2712C156.311 44.9027 156.7 44.8593 156.981 44.816C157.165 44.7943 157.273 44.7726 157.327 44.7184C157.338 44.6859 157.392 44.4799 157.425 44.3607C157.479 44.1656 157.533 43.9705 157.598 43.8513C157.868 43.2985 157.889 43.1468 157.522 42.7241C157.295 42.4639 157.219 42.4422 156.798 42.3339C156.733 42.323 156.646 42.3014 156.538 42.2797C155.673 42.1063 154.808 41.9003 154.516 41.2825C154.419 41.0766 154.354 40.7514 154.592 40.3287C154.852 39.8626 155.554 39.8084 156.257 39.7867H156.43C156.841 39.7542 157.035 39.6784 157.435 39.5266C157.576 39.4724 157.727 39.4291 157.889 39.3857C158.29 39.2773 158.668 39.1689 158.819 38.898C158.884 38.7787 158.895 38.7245 158.895 38.7245C158.895 38.7137 158.83 38.6378 158.798 38.5836C158.744 38.5078 158.679 38.4211 158.614 38.3235C158.408 37.9875 157.933 37.077 157.846 36.5459C157.771 36.0257 157.976 35.603 158.171 35.2345C158.29 34.996 158.398 34.7792 158.419 34.5625C158.441 34.2156 158.3 33.8471 158.149 33.4461C158.052 33.1859 157.944 32.9041 157.889 32.6223C157.792 32.1454 157.814 31.6793 157.825 31.2349C157.825 31.0182 157.846 30.8122 157.835 30.5954C157.825 29.9668 157.684 29.5224 157.446 28.9263C157.165 28.2434 157.133 27.6581 157.1 27.0945C157.079 26.791 157.068 26.4659 157.003 26.1299C156.916 25.6421 156.646 25.2627 156.365 24.8509C155.879 24.168 155.338 23.3876 155.835 22.152C155.965 21.8377 156.181 21.5776 156.376 21.3499C156.538 21.1548 156.711 20.9597 156.754 20.7972C156.819 20.5695 156.819 20.3961 156.819 20.2118C156.819 19.8867 156.819 19.529 157.133 19.0413C157.208 18.922 157.327 18.7811 157.457 18.6294C157.522 18.5535 157.608 18.4451 157.695 18.3476C157.695 18.1958 157.749 18.0658 157.868 17.9791C157.781 17.6214 156.646 16.7868 156.257 16.505C156.052 16.3533 155.879 16.234 155.77 16.1365C155.5 15.9089 155.241 15.6596 154.97 15.4103C154.538 14.9984 154.095 14.5757 153.619 14.2722C153.262 14.0446 152.841 13.9037 152.408 13.7519C152.095 13.6435 151.759 13.5243 151.446 13.3726C150.949 13.1341 150.592 12.8306 150.213 12.5163L150.019 12.3537C149.954 12.2995 149.9 12.2453 149.835 12.1911C149.684 12.0502 149.619 11.996 149.521 11.9852C149.154 11.9418 148.667 12.137 148.365 12.3429C148.04 12.5597 147.781 12.7764 147.532 12.9715C146.808 13.5677 146.17 14.0771 144.862 14.1204C144.04 14.1421 143.391 13.9796 142.699 13.7953L142.386 13.7194C142.159 13.6652 141.932 13.6219 141.705 13.5785C141.164 13.481 140.602 13.3834 140.061 13.0366C139.802 12.874 139.586 12.6355 139.38 12.4079C139.186 12.1912 139.002 11.9744 138.818 11.8877C138.656 11.8118 138.332 11.8443 138.061 11.8768C137.899 11.8876 137.748 11.9094 137.607 11.9094C136.915 11.9094 136.267 11.7684 135.64 11.6275C135.11 11.5083 134.602 11.3891 134.072 11.3674C133.618 11.3457 133.153 11.2699 132.71 11.194C131.856 11.0531 130.969 10.9122 130.191 11.1181C129.477 11.3132 128.893 12.0719 128.374 12.7439C128.277 12.874 128.18 12.9932 128.093 13.1124C126.85 14.6516 125.423 16.1256 122.904 15.5945C122.623 15.5403 122.32 15.4861 122.017 15.4428C120.86 15.2694 119.563 15.0743 118.731 14.0229C118.017 13.1124 116.449 11.9744 115.357 12.4404C115.174 12.5163 115.033 12.7006 114.86 12.9065C114.655 13.1558 114.428 13.4376 114.082 13.6219C113.163 14.1096 111.66 14.1205 110.654 14.1313H110.611C109.789 14.1313 109.022 13.9037 108.254 13.4484C108.146 13.3834 108.049 13.2967 107.941 13.21C107.714 13.0149 107.67 12.9932 107.584 13.0257C107.443 13.0691 107.303 13.3617 107.195 13.5894C107.033 13.9145 106.86 14.283 106.524 14.4673C106.168 14.6732 105.768 14.6841 105.411 14.6949C105.27 14.6949 105.13 14.6949 105 14.7274C104.665 14.7816 104.33 14.8467 104.005 14.9117C102.719 15.161 101.378 15.4211 99.9835 14.7383C99.5186 14.5106 99.0537 14.3372 98.5564 14.1421C98.178 14.0012 97.8104 13.8603 97.4428 13.6977C97.3023 13.6327 97.1401 13.6219 96.9563 13.6219C96.7509 13.6219 96.513 13.6002 96.2644 13.5026C96.0698 13.4268 95.9076 13.3076 95.7671 13.1883C95.6481 13.0908 95.5292 12.9932 95.4103 12.9607C95.2157 12.9065 95.0859 12.7222 95.1076 12.5271C95.1616 11.8226 95.7238 10.9772 96.3509 10.0993L96.4806 9.92583C96.7942 9.48144 97.1617 9.14545 97.5293 8.82029L97.6266 8.73356C97.432 8.65769 97.2374 8.58182 97.0536 8.50595C96.5022 8.27834 95.9941 8.07238 95.3887 8.05071C94.0913 7.99651 92.4155 8.02904 90.9776 8.80944C90.61 9.00453 90.2424 9.24298 89.8748 9.48144C88.891 10.1209 87.8747 10.7821 86.599 10.8471C86.3395 10.858 86.0692 10.8254 85.7989 10.7929C85.3557 10.7387 84.88 10.6846 84.6097 10.858C84.4367 10.9664 84.3394 11.2915 84.2421 11.595C84.1664 11.8443 84.0799 12.1044 83.9502 12.3212C83.561 12.9607 82.9772 13.2859 82.4582 13.5677C82.1014 13.7736 81.7555 13.9579 81.5068 14.2397C81.1284 14.6516 80.6419 15.3561 80.4257 15.9197C80.35 16.1256 80.3392 16.3641 80.3175 16.6242C80.3175 16.8085 80.2959 16.9819 80.2743 17.1553C80.1554 17.9032 79.8094 18.5318 79.4742 19.1388L79.3553 19.3556C78.7931 20.3853 77.939 20.9272 77.1065 21.4475C76.8795 21.5884 76.6525 21.7293 76.4362 21.881C75.7984 22.3146 75.074 22.7156 74.1658 23.1383C74.0577 23.1925 73.9388 23.2467 73.8199 23.3118C73.2577 23.6044 72.5549 23.9621 71.8846 23.7887C71.7441 23.7562 71.636 23.6478 71.5927 23.5069C71.4522 23.0516 71.3873 22.6181 71.3332 22.1954C71.2467 21.5342 71.1711 20.9597 70.7927 20.4178C70.4251 19.8975 70.2413 19.3989 70.0575 18.9329C69.9602 18.6836 69.8629 18.4343 69.7332 18.1633C69.6899 18.0658 69.6359 17.9357 69.571 17.7948C69.398 17.3938 68.998 16.4508 68.7061 16.3099C68.4574 16.1907 67.9709 16.3532 67.5925 16.4833C67.4195 16.5375 67.2573 16.5917 67.1168 16.6242C66.4681 16.7759 65.7978 17.0469 65.0842 17.3288C63.5166 17.9574 61.8949 18.6077 60.2083 18.1308C59.7434 18.0008 59.4191 17.7406 59.1055 17.5021C58.8677 17.3179 58.6515 17.1553 58.3812 17.0361C58.1541 16.9385 57.9163 16.8518 57.6892 16.7651C57.073 16.5375 56.4351 16.2882 55.8621 15.9088C55.7107 15.8113 55.581 15.7138 55.4621 15.6271C55.1269 15.3886 54.8566 15.1935 54.4458 15.0417C53.635 14.7383 53.0295 14.4348 52.3808 14.0663C51.8727 13.7845 51.2781 13.8061 50.651 13.8278C50.478 13.8278 50.3158 13.8387 50.1429 13.8387C49.9374 13.8387 49.6996 13.8603 49.4401 13.882C48.5211 13.947 47.3643 14.0337 46.6724 13.5243C45.9264 12.9824 45.8832 12.0828 45.8399 11.3457C45.7859 10.2835 45.7426 9.92582 44.8128 9.9475C44.3804 9.9475 43.9587 10.1101 43.5046 10.2618C42.6614 10.5545 41.6991 10.9013 40.6072 10.2185C40.4774 10.1426 40.4018 9.99088 40.4126 9.83914C40.445 9.27552 40.2072 9.15628 39.4936 8.95035C39.0071 8.80944 38.4665 8.64687 38.1314 8.14828C37.5584 7.2595 38.0124 5.51444 38.0773 5.31934C38.1962 4.89663 38.2611 4.64733 38.1638 4.30049C38.1422 4.21378 38.0773 4.12706 38.0124 4.01867C37.9043 3.85609 37.7746 3.66101 37.7097 3.40088C37.5043 2.5121 38.0341 1.86178 38.4665 1.34152C38.726 1.03803 38.9098 0.799551 38.9855 0.571937C38.8774 0.550259 38.7801 0.528584 38.6828 0.506906C38.5963 0.485229 38.499 0.463564 38.4017 0.452726L38.2611 0.42021C38.1854 0.409372 38.1422 0.398534 38.0989 0.387695C38.0881 0.387695 38.0557 0.398522 38.0124 0.409361L37.7854 0.474391C36.5313 0.810394 35.0285 1.59079 33.8609 2.24112C32.3256 3.09739 30.9958 3.2166 29.493 2.6313C29.1687 2.8806 28.6606 3.04319 28.0876 3.21661C27.947 3.25996 27.8281 3.29248 27.7632 3.31415C26.6713 3.74771 24.8766 4.96165 24.4982 6.15392C24.3684 6.56579 24.4117 6.94516 24.6387 7.31368C24.7576 7.50877 24.909 7.68221 25.0712 7.86647C25.4604 8.3217 25.9145 8.84195 25.882 9.68738C25.8604 10.2618 25.4928 10.6954 25.1793 11.0856C24.8766 11.4541 24.7144 11.6817 24.6928 11.9094C25.0928 11.8877 25.6009 11.5517 26.0766 11.2265C26.4983 10.9447 26.9416 10.6412 27.374 10.5328C28.5416 10.2185 29.7309 10.2185 30.8877 10.2293H31.3742C31.504 10.2293 31.7094 10.2076 31.958 10.186C33.2554 10.0776 34.2717 10.0234 34.6825 10.5003C34.8339 10.6737 34.8988 10.8905 34.8771 11.129C34.8231 11.6492 34.3582 12.1369 34.1203 12.3212C33.6771 12.6572 33.4284 12.7006 33.0068 12.7223C32.9095 12.7223 32.7905 12.7439 32.65 12.7548C31.1148 12.939 29.266 13.5568 27.6983 14.4239C26.7037 14.9767 25.428 16.1581 25.0279 17.1987C24.9306 17.4588 24.8766 17.7406 24.8333 18.0008C24.7252 18.6836 24.5955 19.4531 23.5576 19.8217C23.2657 19.9301 22.9954 19.9084 22.7683 19.8867C22.6386 19.8867 22.5197 19.865 22.4224 19.8867C22.1629 19.9192 22.0548 19.9951 21.8278 20.1577C21.7413 20.2227 21.6331 20.2986 21.5142 20.3745C21.4385 20.4178 21.3629 20.4612 21.2872 20.5045C20.898 20.7321 20.8007 20.8188 20.8115 21.0356C20.8331 21.3716 21.3412 21.6642 21.7521 21.9027C21.9142 22.0002 22.0764 22.087 22.1953 22.1737C23.0278 22.759 23.936 23.4852 24.3576 24.504C24.8009 25.5662 25.255 26.6826 25.6766 27.7557C26.455 29.7609 24.0008 30.8447 23.0819 31.2566C22.671 31.4409 21.6007 31.8636 20.725 31.7227C20.4763 31.6902 20.2709 31.6143 20.0979 31.5493C19.8709 31.4734 19.6763 31.4084 19.4384 31.4192C18.3789 31.4409 17.8383 32.3405 17.2545 33.5219C17.0383 33.9446 16.8329 34.3999 16.7572 34.8551C16.7572 34.8768 16.7572 34.9527 16.7572 35.0068C16.7572 35.1694 16.7788 35.3862 16.6707 35.5813C16.4653 35.9932 16.0869 36.1016 15.8058 36.1774C15.6652 36.2208 15.5355 36.2533 15.449 36.3183C14.6922 36.9145 14.7463 38.2585 14.7895 39.3424C14.7895 39.6242 14.8111 39.8843 14.8111 40.1228C14.8111 40.8923 14.4868 41.6185 13.957 42.0737C13.5678 42.3989 13.1137 42.5723 12.6056 42.5723C12.4867 42.5723 12.3678 42.5723 12.2488 42.5506C11.2974 42.4097 10.5731 41.4017 9.94599 40.5021C9.70814 40.1553 9.47029 39.8409 9.26488 39.6242C9.09189 39.4399 8.92972 39.2448 8.77836 39.0606C8.42158 38.6378 8.10805 38.2585 7.81614 38.2476C7.56748 38.2368 7.31882 38.3885 6.97285 38.7029C6.75662 38.8979 6.5512 39.2123 6.34579 39.5158C6.0755 39.9276 5.79441 40.3612 5.41601 40.6213C5.10248 40.849 4.77813 40.8706 4.49704 40.8923C4.41054 40.8923 4.32405 40.9031 4.22675 40.914C4.07539 40.9357 3.91322 40.979 3.75105 41.0224C3.27535 41.1524 2.68072 41.3042 2.10771 41.0657C1.67525 40.8815 1.28605 40.5238 0.918457 40.1444C0.961703 40.3179 1.04819 40.513 1.22118 40.7622C1.63201 41.3475 2.38881 41.8787 2.63748 42.5615C2.77803 42.9625 2.77803 43.7646 2.63748 44.1873C2.46449 44.6642 1.97797 44.9352 1.75093 45.3796C1.40497 46.0299 1.44822 46.6802 1.45903 47.4064C1.48065 48.577 1.45903 49.7476 1.45903 50.9182C1.45903 52.0671 1.80499 53.0751 2.07528 54.1915C2.378 55.4597 2.66991 56.6628 2.69153 57.9743C2.71315 59.6651 2.8537 61.291 3.21048 62.9493C3.66456 65.0303 3.81592 67.1222 4.35649 69.1708C4.60515 70.1137 4.50785 71.1326 4.49704 72.0972C4.49704 73.4846 4.62678 74.6335 5.09167 75.9342C5.24303 76.3569 5.41601 76.6604 5.64305 77.0506C6.08632 77.8418 6.162 78.7306 6.44309 79.5977H6.32417Z"/>
</mask>
<path d="M6.32417 79.5977C6.82149 81.1693 6.79987 82.7626 7.02691 84.3884C7.25395 86.0468 7.57829 87.7268 7.8702 89.3743C8.08643 90.6424 8.57295 91.9106 8.64863 93.2112C8.75674 95.1622 9.12433 97.1132 9.4703 99.0642C9.6649 100.137 9.74058 101.21 9.92437 102.283C10.1514 103.627 10.3676 104.928 10.4541 106.294C10.5406 107.714 10.6379 109.307 11.0704 110.662C11.3515 111.529 11.9461 111.475 11.9677 112.385C12.0002 114.39 12.3786 116.124 12.8975 118.021C13.3408 119.647 13.9678 121.49 14.0976 123.181C14.1625 124.015 14.1084 124.861 14.1084 125.706C14.1084 126.855 13.6867 129.337 14.4435 130.378C14.649 130.648 15.3301 131.006 15.5031 131.169C15.849 131.483 16.022 131.721 16.3572 132.057C16.6599 132.35 17.0815 132.686 17.4059 132.946C17.6545 133.141 18.1519 133.38 18.314 133.662C18.4005 133.813 18.4222 134.063 18.4222 134.334C18.4438 134.323 18.4654 134.301 18.487 134.29C18.7681 134.128 19.1141 134.084 19.4168 134.052C19.5898 134.03 19.752 134.019 19.8925 133.965C21.1466 133.575 22.1737 133.326 23.4603 133.315C23.5576 133.315 23.6549 133.304 23.7522 133.293C24.1738 133.25 24.8874 133.174 25.1793 133.889C25.3307 134.258 25.136 134.691 24.9414 135.103C24.8766 135.244 24.8009 135.407 24.7901 135.483C24.6964 135.894 24.8405 136.241 25.2225 136.523C25.2874 136.577 25.3523 136.631 25.4171 136.697C25.5036 136.783 25.5901 136.859 25.6658 136.881C25.8172 136.924 25.9145 136.881 26.1631 136.729C26.3902 136.588 26.6713 136.426 27.0713 136.415C27.1902 136.415 27.2983 136.436 27.3848 136.469C27.4605 136.382 27.5362 136.295 27.6119 136.198C27.8065 135.97 28.0011 135.732 28.2605 135.537C28.7146 135.201 29.1687 134.843 29.839 134.756C30.2282 134.702 30.5526 134.811 30.8012 134.897C30.985 134.962 31.1472 135.016 31.3094 135.006C31.731 134.973 32.0229 134.724 32.0121 133.618V133.293C31.9905 132.827 31.9797 132.383 32.1635 131.895C32.2283 131.711 32.3256 131.548 32.4121 131.385C32.6392 130.974 32.6824 130.887 32.4338 130.605C32.2932 130.453 32.2932 130.215 32.4229 130.063C32.65 129.781 32.9635 129.662 33.2446 129.554C33.3311 129.521 33.4068 129.489 33.4825 129.456C34.0447 129.196 34.1528 128.968 34.4122 128.416L34.5312 128.177C34.6933 127.841 34.8771 127.527 35.0609 127.223C35.3528 126.725 35.6339 126.259 35.7961 125.706C35.4177 125.533 34.9312 125.554 34.4339 125.576C34.023 125.598 33.5906 125.608 33.1797 125.522C32.6067 125.402 32.0662 125.262 31.8067 124.915C31.7418 124.817 31.7094 124.698 31.731 124.59C31.7743 124.373 31.7634 124.145 31.7094 123.928C31.6121 123.408 31.5364 122.91 31.4823 122.422L31.4391 122.227C31.3094 121.555 31.1796 120.926 31.1904 120.178C31.1904 120.016 31.2121 119.81 31.2337 119.582C31.2769 119.159 31.3526 118.466 31.2121 118.238C31.158 118.151 31.1039 118.108 31.0283 118.043C30.8012 117.87 30.585 117.664 30.6282 117.132C30.6607 116.666 31.0175 116.2 31.4067 115.778C31.504 115.669 31.6553 115.615 31.7959 115.648C32.4121 115.767 32.877 116.135 33.2987 116.471C33.4608 116.601 33.6122 116.721 33.7744 116.829C34.3149 117.187 35.1366 117.328 35.7096 117.393C36.3367 117.479 36.6935 116.677 37.0719 115.626C37.1692 115.355 37.2556 115.095 37.3529 114.889C37.8827 113.729 38.6719 114.087 39.1476 114.293C39.818 114.585 40.1855 114.596 40.9099 114.304C41.591 114.033 42.2181 113.545 42.683 112.905C42.8343 112.699 42.9208 112.472 43.0073 112.222C43.1262 111.886 43.2668 111.507 43.5911 111.171C43.6128 111.149 45.6669 109.101 46.9643 109.274C47.3968 109.329 47.8076 109.589 48.2076 109.838C48.4022 109.957 48.5968 110.087 48.7698 110.163C49.1915 110.347 49.4509 110.304 49.8726 110.228C50.0347 110.196 50.2077 110.163 50.4023 110.141L50.6402 110.12C51.0835 110.076 51.4078 110.044 51.8511 109.87C52.7484 109.534 53.2133 109.589 53.9917 109.686L54.2944 109.73C55.3972 109.86 56.5973 109.665 57.4838 109.209C57.819 109.036 58.1001 108.754 58.4028 108.461C58.6298 108.245 58.8569 108.006 59.1272 107.811C59.3001 107.692 59.5272 107.703 59.6677 107.854C59.711 107.887 59.7867 107.833 59.8407 107.703C59.9813 107.399 59.711 106.89 59.5055 106.521L59.138 105.817C58.5758 104.765 57.9487 103.573 57.8838 102.338C57.819 101.091 57.7541 99.7687 57.8838 98.6198C57.9163 98.338 57.9811 98.0562 58.0568 97.7743C58.0893 97.6334 58.1325 97.4817 58.1541 97.3408C58.2406 96.9289 58.3812 96.4412 58.8028 96.2353C59.2245 96.0293 59.7002 96.2352 60.1218 96.4303C60.6624 96.7555 61.1273 97.1349 61.5489 97.5576C61.9922 98.0237 62.5219 98.3055 63.1706 98.4139C63.5058 98.5223 63.8301 98.5981 64.1761 98.6848C65.0626 98.9016 66.0681 99.1509 66.6843 99.6928C66.8789 99.8663 66.933 100.018 66.9654 100.159C66.9654 100.159 66.9979 100.181 67.0411 100.213C67.3114 100.386 68.1547 100.213 68.5547 100.137C68.6845 100.116 68.7926 100.094 68.8899 100.072C69.1277 100.04 69.3764 99.953 69.6359 99.8663C69.971 99.7579 70.317 99.6495 70.6629 99.617C70.9657 99.5844 71.2576 99.7037 71.5062 99.812C71.636 99.8662 71.7657 99.9205 71.863 99.9313C72.5441 100.04 73.1712 99.8662 73.8415 99.6711C74.2848 99.5519 74.7388 99.4218 75.2254 99.3677C75.1929 99.2051 75.1172 99.01 74.9983 98.7715C74.9118 98.5981 74.8362 98.4247 74.7713 98.2513C74.5659 97.6334 74.4361 96.9289 74.4037 96.1702V95.9534C74.328 94.9888 74.2415 93.5364 75.6254 93.0703C76.1011 92.9077 76.5768 92.9511 77.0417 92.9945C77.4201 93.027 77.7877 93.0595 78.1012 92.9728C78.6418 92.8102 79.3553 92.3224 79.7013 91.8672C79.777 91.7697 79.8959 91.7155 80.0148 91.7046C80.1337 91.7046 80.2527 91.748 80.3392 91.8347C80.8041 92.3333 81.2906 92.3224 81.6149 92.2249C82.242 92.0406 82.7609 91.4337 82.8907 90.7508C82.9447 90.4582 82.9555 90.1872 82.9771 89.8945C82.9988 89.4176 83.0204 88.9082 83.2474 88.3663C83.3772 88.0628 83.4853 87.7485 83.6042 87.4342C83.7772 86.9789 83.9394 86.5345 84.134 86.0901C84.2096 85.9275 84.3718 85.83 84.5448 85.8408C84.8583 85.8625 85.0854 85.9167 85.2476 85.9601C85.5178 86.0359 85.5286 86.0251 85.8638 85.6024C86.4584 84.8328 86.5557 84.6377 86.5341 83.6622C86.5233 82.8493 86.6422 81.7438 87.345 81.1693C87.7666 80.8225 88.3072 80.7141 88.9667 80.855C89.1505 80.8983 89.3235 80.9525 89.4856 81.0176C89.864 81.1476 90.037 81.2018 90.3073 81.0501C90.6857 80.8225 91.3452 80.2589 91.6155 79.9229C91.702 79.8145 91.8101 79.511 91.8966 79.24C92.1452 78.5355 92.4588 77.6467 93.1939 77.5817C93.4102 77.5708 93.6048 77.7117 93.6372 77.9285C93.6696 78.1128 93.7129 78.2754 93.7561 78.4163C94.4373 78.6005 94.567 79.4026 94.6535 79.9987C94.7076 80.3456 94.7832 80.8116 94.9454 80.92C94.9562 80.92 95.0859 80.8983 95.1616 80.8875C95.2806 80.8767 95.4103 80.855 95.54 80.8658C95.886 80.8984 96.0265 80.9742 96.2319 81.0718L96.3941 81.1476C96.9671 81.4186 97.4104 81.6896 97.7672 82.0039L97.9618 82.1773C98.1348 82.3291 98.2321 82.4158 98.3618 82.47C98.2969 81.3644 98.1348 80.3889 97.8429 79.4893C97.5618 78.6113 97.3131 77.6792 97.6266 77.0397C97.7672 76.7471 98.0915 76.4978 98.4267 76.2376C98.6321 76.0751 98.8483 75.9125 98.9564 75.7824C99.6484 74.9045 100.351 74.3734 101.367 73.9398C101.584 73.8423 101.8 73.7664 102.005 73.6797C103.573 73.051 104.514 72.6609 104.686 70.8074C104.751 70.1029 104.286 69.8428 103.454 69.4526C102.686 69.0841 101.724 68.6288 101.638 67.4474C101.584 66.6345 101.962 66.3852 102.254 66.1792C102.384 66.0925 102.503 66.0058 102.622 65.8649C102.838 65.594 103.011 65.1821 103.173 64.7919C103.238 64.6293 103.303 64.4667 103.378 64.3258C103.476 64.109 103.573 63.5129 103.649 62.9276C103.908 61.1934 104.2 59.2316 105.432 59.1015C105.887 59.0473 106.395 59.3725 106.795 59.6326C106.914 59.7085 107.011 59.7735 107.097 59.8169C107.422 59.9903 107.66 60.2179 107.897 60.4347C108.092 60.6189 108.287 60.7924 108.492 60.9007C108.492 60.9007 108.492 60.9007 108.503 60.9007C108.503 60.8357 108.514 60.7599 108.525 60.684C108.687 59.6435 109.119 59.47 110.017 59.3508C110.135 59.3291 110.254 59.3291 110.362 59.3291C110.676 59.3291 110.698 59.3074 110.752 59.1882C110.881 58.9498 110.719 58.6896 110.298 58.2236C110.168 58.0826 110.049 57.9417 109.962 57.8117C109.573 57.2372 109.454 56.7495 109.595 56.3268C109.822 55.6656 110.59 55.4163 111.26 55.1995C111.465 55.1345 111.66 55.0695 111.833 54.9936C112.622 54.6576 112.946 53.2919 113.173 52.3815C113.249 52.0563 113.13 51.3843 113.022 50.7448C112.784 49.4116 112.546 48.0351 113.444 47.5257C113.573 47.4498 113.736 47.4498 113.876 47.5257C115.087 48.2735 116.493 49.0865 117.812 49.3032C118.817 49.4658 119.866 49.4224 120.871 49.3791C121.758 49.3466 122.666 49.3141 123.563 49.4008C123.974 49.4441 125.152 49.6826 125.639 50.2787C125.801 50.4738 125.834 50.6797 125.866 50.8315C125.866 50.8857 125.888 50.9399 125.909 51.0049C126.104 51.5252 126.32 51.9262 126.634 52.3489C126.926 52.7391 127.174 53.1944 127.401 53.6279C127.996 54.7226 128.504 55.6764 129.704 55.774C129.953 55.7956 130.018 55.774 130.028 55.774C130.028 55.774 130.007 55.6222 130.028 55.4922C130.028 55.3838 130.039 55.2754 130.061 55.1453C130.169 54.159 130.861 52.8583 131.823 52.4898C132.569 52.1972 133.499 52.5115 134.029 52.9776C134.31 53.216 134.472 53.5304 134.623 53.8013C134.785 54.0831 134.915 54.3324 135.131 54.4517C135.64 54.7335 136.732 54.8418 137.261 54.6576C137.51 54.5709 137.715 54.3975 137.964 54.2024C138.234 53.9748 138.537 53.7254 138.937 53.5845C140.051 53.1943 141.002 53.2919 141.791 53.4545C142.18 53.5304 142.581 53.5303 142.991 53.5412C143.391 53.5412 143.802 53.5412 144.224 53.6171C144.375 53.6387 144.505 53.758 144.559 53.9097C144.656 54.2241 144.948 54.4842 145.251 54.766C145.51 55.0044 145.781 55.2429 145.964 55.5464C146.181 55.9149 146.31 56.3159 146.44 56.7061C146.548 57.0313 146.646 57.3456 146.786 57.6166C146.883 57.8008 147.035 57.9959 147.197 58.2019C147.543 58.6571 147.943 59.1665 147.954 59.7952C147.954 60.3263 147.716 60.8249 147.467 61.3018C147.283 61.6595 147.11 61.9955 147.067 62.3098C146.97 62.9601 146.862 63.307 146.559 63.9139C146.429 64.1849 146.354 64.4884 146.278 64.8136C146.17 65.2688 146.051 65.7348 145.759 66.1792C145.575 66.461 145.273 66.6887 144.981 66.9163C144.786 67.068 144.375 67.3932 144.375 67.5124C144.375 67.5124 144.386 67.5449 144.429 67.5991C144.57 67.7509 145.013 67.7075 145.359 67.6858C145.716 67.6533 146.094 67.6317 146.408 67.7292C146.527 67.7726 146.624 67.8593 146.667 67.9785C146.71 68.0977 146.7 68.2278 146.646 68.3362C146.256 69.0515 146.538 69.626 147.046 70.4931C147.262 70.8616 147.478 71.2518 147.619 71.6637C147.813 72.2598 148.343 72.7801 149.251 73.2462C149.965 73.6147 150.938 73.5605 151.889 73.5171C152.041 73.5171 152.192 73.5063 152.343 73.4954C152.343 73.4737 152.322 73.4521 152.311 73.4304C152.257 73.2028 152.397 72.9752 152.624 72.921C152.754 72.8885 152.776 72.8776 152.895 72.6067C152.949 72.4766 153.111 72.0214 153.154 71.8588C153.251 71.4469 153.057 70.9483 152.862 70.4714C152.776 70.2546 152.689 70.0378 152.624 69.8428C152.559 69.6368 152.516 69.4309 152.462 69.2249C152.376 68.8781 152.3 68.5421 152.159 68.2169L152.105 68.0869C151.857 67.5233 151.684 67.1114 151.965 66.3418C152.3 65.4205 153.068 64.51 154.311 63.5671C154.484 63.437 154.657 63.307 154.83 63.1877C155.511 62.7 156.095 62.2664 156.506 61.5294L156.689 61.1826C156.992 60.5973 157.349 59.9252 157.868 59.5025C158.971 58.5921 160.798 59.1774 162.128 59.6001C162.355 59.676 162.56 59.741 162.744 59.7843C163.306 59.9469 164.311 60.142 164.636 59.6651C164.83 59.3725 164.712 59.1232 164.247 58.5379C164.16 58.4295 164.074 58.3319 164.009 58.2236C163.501 57.5082 163.641 56.7603 163.76 56.0992C163.901 55.3621 163.955 54.8852 163.49 54.4083C162.83 53.7363 161.987 53.6496 161.1 53.552C160.376 53.4762 159.619 53.3894 158.906 52.9992C158.03 52.5115 157.241 51.4601 156.841 50.7014C156.516 50.0944 156.203 48.9997 156.16 48.2519C156.16 48.1001 156.16 47.9484 156.181 47.7966C156.203 47.6666 156.214 47.5365 156.192 47.439C156.16 47.2655 156.062 47.0921 155.954 46.9187C155.716 46.5393 155.37 45.9757 155.987 45.2712C156.311 44.9027 156.7 44.8593 156.981 44.816C157.165 44.7943 157.273 44.7726 157.327 44.7184C157.338 44.6859 157.392 44.4799 157.425 44.3607C157.479 44.1656 157.533 43.9705 157.598 43.8513C157.868 43.2985 157.889 43.1468 157.522 42.7241C157.295 42.4639 157.219 42.4422 156.798 42.3339C156.733 42.323 156.646 42.3014 156.538 42.2797C155.673 42.1063 154.808 41.9003 154.516 41.2825C154.419 41.0766 154.354 40.7514 154.592 40.3287C154.852 39.8626 155.554 39.8084 156.257 39.7867H156.43C156.841 39.7542 157.035 39.6784 157.435 39.5266C157.576 39.4724 157.727 39.4291 157.889 39.3857C158.29 39.2773 158.668 39.1689 158.819 38.898C158.884 38.7787 158.895 38.7245 158.895 38.7245C158.895 38.7137 158.83 38.6378 158.798 38.5836C158.744 38.5078 158.679 38.4211 158.614 38.3235C158.408 37.9875 157.933 37.077 157.846 36.5459C157.771 36.0257 157.976 35.603 158.171 35.2345C158.29 34.996 158.398 34.7792 158.419 34.5625C158.441 34.2156 158.3 33.8471 158.149 33.4461C158.052 33.1859 157.944 32.9041 157.889 32.6223C157.792 32.1454 157.814 31.6793 157.825 31.2349C157.825 31.0182 157.846 30.8122 157.835 30.5954C157.825 29.9668 157.684 29.5224 157.446 28.9263C157.165 28.2434 157.133 27.6581 157.1 27.0945C157.079 26.791 157.068 26.4659 157.003 26.1299C156.916 25.6421 156.646 25.2627 156.365 24.8509C155.879 24.168 155.338 23.3876 155.835 22.152C155.965 21.8377 156.181 21.5776 156.376 21.3499C156.538 21.1548 156.711 20.9597 156.754 20.7972C156.819 20.5695 156.819 20.3961 156.819 20.2118C156.819 19.8867 156.819 19.529 157.133 19.0413C157.208 18.922 157.327 18.7811 157.457 18.6294C157.522 18.5535 157.608 18.4451 157.695 18.3476C157.695 18.1958 157.749 18.0658 157.868 17.9791C157.781 17.6214 156.646 16.7868 156.257 16.505C156.052 16.3533 155.879 16.234 155.77 16.1365C155.5 15.9089 155.241 15.6596 154.97 15.4103C154.538 14.9984 154.095 14.5757 153.619 14.2722C153.262 14.0446 152.841 13.9037 152.408 13.7519C152.095 13.6435 151.759 13.5243 151.446 13.3726C150.949 13.1341 150.592 12.8306 150.213 12.5163L150.019 12.3537C149.954 12.2995 149.9 12.2453 149.835 12.1911C149.684 12.0502 149.619 11.996 149.521 11.9852C149.154 11.9418 148.667 12.137 148.365 12.3429C148.04 12.5597 147.781 12.7764 147.532 12.9715C146.808 13.5677 146.17 14.0771 144.862 14.1204C144.04 14.1421 143.391 13.9796 142.699 13.7953L142.386 13.7194C142.159 13.6652 141.932 13.6219 141.705 13.5785C141.164 13.481 140.602 13.3834 140.061 13.0366C139.802 12.874 139.586 12.6355 139.38 12.4079C139.186 12.1912 139.002 11.9744 138.818 11.8877C138.656 11.8118 138.332 11.8443 138.061 11.8768C137.899 11.8876 137.748 11.9094 137.607 11.9094C136.915 11.9094 136.267 11.7684 135.64 11.6275C135.11 11.5083 134.602 11.3891 134.072 11.3674C133.618 11.3457 133.153 11.2699 132.71 11.194C131.856 11.0531 130.969 10.9122 130.191 11.1181C129.477 11.3132 128.893 12.0719 128.374 12.7439C128.277 12.874 128.18 12.9932 128.093 13.1124C126.85 14.6516 125.423 16.1256 122.904 15.5945C122.623 15.5403 122.32 15.4861 122.017 15.4428C120.86 15.2694 119.563 15.0743 118.731 14.0229C118.017 13.1124 116.449 11.9744 115.357 12.4404C115.174 12.5163 115.033 12.7006 114.86 12.9065C114.655 13.1558 114.428 13.4376 114.082 13.6219C113.163 14.1096 111.66 14.1205 110.654 14.1313H110.611C109.789 14.1313 109.022 13.9037 108.254 13.4484C108.146 13.3834 108.049 13.2967 107.941 13.21C107.714 13.0149 107.67 12.9932 107.584 13.0257C107.443 13.0691 107.303 13.3617 107.195 13.5894C107.033 13.9145 106.86 14.283 106.524 14.4673C106.168 14.6732 105.768 14.6841 105.411 14.6949C105.27 14.6949 105.13 14.6949 105 14.7274C104.665 14.7816 104.33 14.8467 104.005 14.9117C102.719 15.161 101.378 15.4211 99.9835 14.7383C99.5186 14.5106 99.0537 14.3372 98.5564 14.1421C98.178 14.0012 97.8104 13.8603 97.4428 13.6977C97.3023 13.6327 97.1401 13.6219 96.9563 13.6219C96.7509 13.6219 96.513 13.6002 96.2644 13.5026C96.0698 13.4268 95.9076 13.3076 95.7671 13.1883C95.6481 13.0908 95.5292 12.9932 95.4103 12.9607C95.2157 12.9065 95.0859 12.7222 95.1076 12.5271C95.1616 11.8226 95.7238 10.9772 96.3509 10.0993L96.4806 9.92583C96.7942 9.48144 97.1617 9.14545 97.5293 8.82029L97.6266 8.73356C97.432 8.65769 97.2374 8.58182 97.0536 8.50595C96.5022 8.27834 95.9941 8.07238 95.3887 8.05071C94.0913 7.99651 92.4155 8.02904 90.9776 8.80944C90.61 9.00453 90.2424 9.24298 89.8748 9.48144C88.891 10.1209 87.8747 10.7821 86.599 10.8471C86.3395 10.858 86.0692 10.8254 85.7989 10.7929C85.3557 10.7387 84.88 10.6846 84.6097 10.858C84.4367 10.9664 84.3394 11.2915 84.2421 11.595C84.1664 11.8443 84.0799 12.1044 83.9502 12.3212C83.561 12.9607 82.9772 13.2859 82.4582 13.5677C82.1014 13.7736 81.7555 13.9579 81.5068 14.2397C81.1284 14.6516 80.6419 15.3561 80.4257 15.9197C80.35 16.1256 80.3392 16.3641 80.3175 16.6242C80.3175 16.8085 80.2959 16.9819 80.2743 17.1553C80.1554 17.9032 79.8094 18.5318 79.4742 19.1388L79.3553 19.3556C78.7931 20.3853 77.939 20.9272 77.1065 21.4475C76.8795 21.5884 76.6525 21.7293 76.4362 21.881C75.7984 22.3146 75.074 22.7156 74.1658 23.1383C74.0577 23.1925 73.9388 23.2467 73.8199 23.3118C73.2577 23.6044 72.5549 23.9621 71.8846 23.7887C71.7441 23.7562 71.636 23.6478 71.5927 23.5069C71.4522 23.0516 71.3873 22.6181 71.3332 22.1954C71.2467 21.5342 71.1711 20.9597 70.7927 20.4178C70.4251 19.8975 70.2413 19.3989 70.0575 18.9329C69.9602 18.6836 69.8629 18.4343 69.7332 18.1633C69.6899 18.0658 69.6359 17.9357 69.571 17.7948C69.398 17.3938 68.998 16.4508 68.7061 16.3099C68.4574 16.1907 67.9709 16.3532 67.5925 16.4833C67.4195 16.5375 67.2573 16.5917 67.1168 16.6242C66.4681 16.7759 65.7978 17.0469 65.0842 17.3288C63.5166 17.9574 61.8949 18.6077 60.2083 18.1308C59.7434 18.0008 59.4191 17.7406 59.1055 17.5021C58.8677 17.3179 58.6515 17.1553 58.3812 17.0361C58.1541 16.9385 57.9163 16.8518 57.6892 16.7651C57.073 16.5375 56.4351 16.2882 55.8621 15.9088C55.7107 15.8113 55.581 15.7138 55.4621 15.6271C55.1269 15.3886 54.8566 15.1935 54.4458 15.0417C53.635 14.7383 53.0295 14.4348 52.3808 14.0663C51.8727 13.7845 51.2781 13.8061 50.651 13.8278C50.478 13.8278 50.3158 13.8387 50.1429 13.8387C49.9374 13.8387 49.6996 13.8603 49.4401 13.882C48.5211 13.947 47.3643 14.0337 46.6724 13.5243C45.9264 12.9824 45.8832 12.0828 45.8399 11.3457C45.7859 10.2835 45.7426 9.92582 44.8128 9.9475C44.3804 9.9475 43.9587 10.1101 43.5046 10.2618C42.6614 10.5545 41.6991 10.9013 40.6072 10.2185C40.4774 10.1426 40.4018 9.99088 40.4126 9.83914C40.445 9.27552 40.2072 9.15628 39.4936 8.95035C39.0071 8.80944 38.4665 8.64687 38.1314 8.14828C37.5584 7.2595 38.0124 5.51444 38.0773 5.31934C38.1962 4.89663 38.2611 4.64733 38.1638 4.30049C38.1422 4.21378 38.0773 4.12706 38.0124 4.01867C37.9043 3.85609 37.7746 3.66101 37.7097 3.40088C37.5043 2.5121 38.0341 1.86178 38.4665 1.34152C38.726 1.03803 38.9098 0.799551 38.9855 0.571937C38.8774 0.550259 38.7801 0.528584 38.6828 0.506906C38.5963 0.485229 38.499 0.463564 38.4017 0.452726L38.2611 0.42021C38.1854 0.409372 38.1422 0.398534 38.0989 0.387695C38.0881 0.387695 38.0557 0.398522 38.0124 0.409361L37.7854 0.474391C36.5313 0.810394 35.0285 1.59079 33.8609 2.24112C32.3256 3.09739 30.9958 3.2166 29.493 2.6313C29.1687 2.8806 28.6606 3.04319 28.0876 3.21661C27.947 3.25996 27.8281 3.29248 27.7632 3.31415C26.6713 3.74771 24.8766 4.96165 24.4982 6.15392C24.3684 6.56579 24.4117 6.94516 24.6387 7.31368C24.7576 7.50877 24.909 7.68221 25.0712 7.86647C25.4604 8.3217 25.9145 8.84195 25.882 9.68738C25.8604 10.2618 25.4928 10.6954 25.1793 11.0856C24.8766 11.4541 24.7144 11.6817 24.6928 11.9094C25.0928 11.8877 25.6009 11.5517 26.0766 11.2265C26.4983 10.9447 26.9416 10.6412 27.374 10.5328C28.5416 10.2185 29.7309 10.2185 30.8877 10.2293H31.3742C31.504 10.2293 31.7094 10.2076 31.958 10.186C33.2554 10.0776 34.2717 10.0234 34.6825 10.5003C34.8339 10.6737 34.8988 10.8905 34.8771 11.129C34.8231 11.6492 34.3582 12.1369 34.1203 12.3212C33.6771 12.6572 33.4284 12.7006 33.0068 12.7223C32.9095 12.7223 32.7905 12.7439 32.65 12.7548C31.1148 12.939 29.266 13.5568 27.6983 14.4239C26.7037 14.9767 25.428 16.1581 25.0279 17.1987C24.9306 17.4588 24.8766 17.7406 24.8333 18.0008C24.7252 18.6836 24.5955 19.4531 23.5576 19.8217C23.2657 19.9301 22.9954 19.9084 22.7683 19.8867C22.6386 19.8867 22.5197 19.865 22.4224 19.8867C22.1629 19.9192 22.0548 19.9951 21.8278 20.1577C21.7413 20.2227 21.6331 20.2986 21.5142 20.3745C21.4385 20.4178 21.3629 20.4612 21.2872 20.5045C20.898 20.7321 20.8007 20.8188 20.8115 21.0356C20.8331 21.3716 21.3412 21.6642 21.7521 21.9027C21.9142 22.0002 22.0764 22.087 22.1953 22.1737C23.0278 22.759 23.936 23.4852 24.3576 24.504C24.8009 25.5662 25.255 26.6826 25.6766 27.7557C26.455 29.7609 24.0008 30.8447 23.0819 31.2566C22.671 31.4409 21.6007 31.8636 20.725 31.7227C20.4763 31.6902 20.2709 31.6143 20.0979 31.5493C19.8709 31.4734 19.6763 31.4084 19.4384 31.4192C18.3789 31.4409 17.8383 32.3405 17.2545 33.5219C17.0383 33.9446 16.8329 34.3999 16.7572 34.8551C16.7572 34.8768 16.7572 34.9527 16.7572 35.0068C16.7572 35.1694 16.7788 35.3862 16.6707 35.5813C16.4653 35.9932 16.0869 36.1016 15.8058 36.1774C15.6652 36.2208 15.5355 36.2533 15.449 36.3183C14.6922 36.9145 14.7463 38.2585 14.7895 39.3424C14.7895 39.6242 14.8111 39.8843 14.8111 40.1228C14.8111 40.8923 14.4868 41.6185 13.957 42.0737C13.5678 42.3989 13.1137 42.5723 12.6056 42.5723C12.4867 42.5723 12.3678 42.5723 12.2488 42.5506C11.2974 42.4097 10.5731 41.4017 9.94599 40.5021C9.70814 40.1553 9.47029 39.8409 9.26488 39.6242C9.09189 39.4399 8.92972 39.2448 8.77836 39.0606C8.42158 38.6378 8.10805 38.2585 7.81614 38.2476C7.56748 38.2368 7.31882 38.3885 6.97285 38.7029C6.75662 38.8979 6.5512 39.2123 6.34579 39.5158C6.0755 39.9276 5.79441 40.3612 5.41601 40.6213C5.10248 40.849 4.77813 40.8706 4.49704 40.8923C4.41054 40.8923 4.32405 40.9031 4.22675 40.914C4.07539 40.9357 3.91322 40.979 3.75105 41.0224C3.27535 41.1524 2.68072 41.3042 2.10771 41.0657C1.67525 40.8815 1.28605 40.5238 0.918457 40.1444C0.961703 40.3179 1.04819 40.513 1.22118 40.7622C1.63201 41.3475 2.38881 41.8787 2.63748 42.5615C2.77803 42.9625 2.77803 43.7646 2.63748 44.1873C2.46449 44.6642 1.97797 44.9352 1.75093 45.3796C1.40497 46.0299 1.44822 46.6802 1.45903 47.4064C1.48065 48.577 1.45903 49.7476 1.45903 50.9182C1.45903 52.0671 1.80499 53.0751 2.07528 54.1915C2.378 55.4597 2.66991 56.6628 2.69153 57.9743C2.71315 59.6651 2.8537 61.291 3.21048 62.9493C3.66456 65.0303 3.81592 67.1222 4.35649 69.1708C4.60515 70.1137 4.50785 71.1326 4.49704 72.0972C4.49704 73.4846 4.62678 74.6335 5.09167 75.9342C5.24303 76.3569 5.41601 76.6604 5.64305 77.0506C6.08632 77.8418 6.162 78.7306 6.44309 79.5977H6.32417Z" fill="#2E373A" stroke="black" stroke-width="2" mask="url(#path-1-inside-1_3331_57)"/>
</svg>
